<svg width="306" height="287" viewBox="0 0 306 287" fill="none" xmlns="http://www.w3.org/2000/svg">
<circle cx="150.5" cy="143.5" r="143.5" fill="#21003C"/>
<path d="M122.399 115.355L131.282 83.2235L192.086 73.8048L220.462 45.4292C222.787 43.1043 226.542 43.1043 228.867 45.4292L283.115 99.8554C285.44 102.18 285.44 105.936 283.115 108.261L249.791 141.644C247.466 143.969 245.44 146.651 243.83 149.572L230.536 173.358C227.437 178.961 223.502 184.088 218.972 188.559L179.806 227.724L94.8584 142.896L122.399 115.355Z" fill="#B46E59"/>
<path d="M283.115 99.915L277.034 93.8346C277.511 95.8018 276.975 98.0074 275.425 99.5574L241.684 133.298C239.3 135.683 237.273 138.365 235.663 141.286L222.25 165.25C219.091 170.854 215.156 176.04 210.626 180.63L171.639 219.617L179.806 227.784L218.972 188.618C223.502 184.088 227.377 178.961 230.536 173.417L243.83 149.632C245.44 146.711 247.466 144.088 249.791 141.703L283.115 108.38C285.44 105.996 285.44 102.24 283.115 99.915Z" fill="#A55E4D"/>
<path d="M250.566 184.863L189.94 124.177C188.45 122.687 187.377 120.839 186.781 118.753L178.793 89.7809L163.115 81.4948C157.392 78.4545 150.835 77.3219 144.396 78.2161L134.501 79.5872C124.963 80.9583 115.305 77.7392 108.45 70.8838L72.3845 34.8182C70.0596 32.4933 66.304 32.4933 63.9791 34.8182L9.73173 89.2444C7.40685 91.5693 7.40685 95.3249 9.73173 97.6498L60.2831 148.201C62.608 150.526 64.6349 153.209 66.2444 156.13L79.538 179.915C82.6378 185.519 86.5723 190.645 91.1028 195.116L130.268 234.282L193.934 170.615L229.463 206.145C232.981 209.662 238.644 209.662 242.101 206.145L250.566 197.68C254.083 194.103 254.083 188.38 250.566 184.863Z" fill="#F7CF9C"/>
<path d="M216.051 222.538L224.635 213.954C228.152 210.437 228.152 204.773 224.635 201.316L192.981 169.662L171.759 190.884L203.413 222.538C206.87 226.055 212.533 226.055 216.051 222.538Z" fill="#F7CF9C"/>
<path d="M189.94 238.872L198.525 230.288C202.042 226.77 202.042 221.107 198.525 217.65L171.759 190.884L150.536 212.106L177.302 238.872C180.76 242.389 186.423 242.389 189.94 238.872Z" fill="#F7CF9C"/>
<path d="M164.247 255.623L172.832 247.039C176.349 243.522 176.349 237.858 172.832 234.401L150.536 212.106L129.314 233.328L151.609 255.623C155.067 259.14 160.73 259.14 164.247 255.623Z" fill="#F7CF9C"/>
<path d="M250.566 184.863L189.94 124.177C188.45 122.687 187.377 120.839 186.781 118.753L181.833 100.809L166.572 93.0596L173.905 119.945C174.799 123.283 176.587 126.323 179.031 128.827L242.757 192.612C246.274 196.13 246.274 201.912 242.757 205.429L250.566 197.62C254.083 194.103 254.083 188.38 250.566 184.863Z" fill="#EAB883"/>
<path d="M224.635 201.316L193.815 170.496C193.338 170.019 192.563 170.019 192.086 170.496L191.371 171.212C187.973 174.609 187.973 180.153 191.371 183.611L216.766 209.006C220.283 212.523 220.283 218.305 216.766 221.823L224.635 213.954C228.092 210.496 228.092 204.833 224.635 201.316Z" fill="#EAB883"/>
<path d="M198.525 217.65L172.653 191.778C172.176 191.301 171.401 191.301 170.924 191.778L170.209 192.493C166.811 195.891 166.811 201.435 170.209 204.893L191.311 225.995C193.875 228.559 194.59 232.314 193.398 235.533L198.525 230.407C201.982 226.83 201.982 221.167 198.525 217.65Z" fill="#EAB883"/>
<path d="M172.832 234.401L151.371 213C150.894 212.523 150.119 212.523 149.642 213L148.45 214.192C145.052 217.59 145.052 223.134 148.45 226.592L164.963 243.104C167.586 245.727 168.301 249.662 166.99 252.881L172.772 247.098C176.289 243.581 176.289 237.918 172.832 234.401Z" fill="#EAB883"/>
<path d="M123.89 183.909L132.474 192.493C135.991 196.01 135.991 201.674 132.474 205.131L113.338 224.267C109.165 228.44 102.37 228.44 98.1371 224.267L92.1162 218.246C87.9433 214.073 87.9433 207.277 92.1162 203.045L111.252 183.909C114.709 180.392 120.373 180.392 123.89 183.909Z" fill="#B46E59"/>
<path d="M98.1967 167.158L106.781 175.742C110.298 179.259 110.298 184.922 106.781 188.38L92.0566 203.045C87.8838 207.218 81.0879 207.218 76.8554 203.045L70.8346 197.024C66.6617 192.851 66.6617 186.055 70.8346 181.823L85.5589 167.098C89.0164 163.641 94.6796 163.641 98.1967 167.158Z" fill="#B46E59"/>
<path d="M132.474 205.131L113.338 224.267C109.165 228.44 102.37 228.44 98.1967 224.267L98.0179 224.088L125.261 196.845C127.824 194.282 128.539 190.526 127.347 187.307L132.474 192.434C135.931 195.951 135.931 201.614 132.474 205.131Z" fill="#A55E4D"/>
<path d="M106.781 188.38L92.0566 203.045C87.8837 207.218 81.0879 207.218 76.915 203.045L76.2593 202.449L98.9717 179.736C101.595 177.113 102.31 173.179 100.998 169.96L106.781 175.742C110.238 179.2 110.238 184.863 106.781 188.38Z" fill="#A55E4D"/>
<path d="M70.0596 152.851L78.6438 161.435C82.161 164.952 82.161 170.615 78.6438 174.073L70.8942 181.823C66.7213 185.996 59.9255 185.996 55.693 181.823L49.6721 175.802C45.4993 171.629 45.4993 164.833 49.6721 160.601L57.4218 152.851C60.8793 149.334 66.5425 149.334 70.0596 152.851Z" fill="#B46E59"/>
<path d="M78.6438 174.073L70.8942 181.823C66.7213 185.996 59.9255 185.996 55.7526 181.823L55.0969 181.167L70.8942 165.37C73.5171 162.747 74.2325 158.812 72.921 155.593L78.7034 161.376C82.1013 164.893 82.1013 170.556 78.6438 174.073Z" fill="#A55E4D"/>
<path d="M140.641 209.602L149.225 218.186C152.742 221.703 152.742 227.367 149.225 230.824L134.501 245.548C130.328 249.721 123.532 249.721 119.3 245.548L113.279 239.528C109.106 235.355 109.106 228.559 113.279 224.326L128.003 209.602C131.46 206.085 137.124 206.085 140.641 209.602Z" fill="#B46E59"/>
<path d="M149.225 230.824L134.501 245.548C130.328 249.721 123.532 249.721 119.359 245.548L118.703 244.893L141.416 222.18C144.039 219.557 144.754 215.623 143.443 212.404L149.225 218.186C152.683 221.644 152.683 227.307 149.225 230.824Z" fill="#A55E4D"/>
<path d="M178.793 89.7809L163.115 81.4948C157.392 78.4545 150.835 77.3219 144.396 78.2161L134.501 79.5872C124.963 80.9583 115.306 77.7392 108.45 70.8838L72.3845 34.8182C70.0596 32.4933 66.304 32.4933 63.9791 34.8182L56.468 42.389C58.7928 40.3025 62.4292 40.3622 64.6349 42.6274L100.7 78.693C107.556 85.5484 117.153 88.7675 126.751 87.3964L136.647 86.0253C143.085 85.1311 149.583 86.2638 155.365 89.304L171.043 97.5902L181.297 98.842L178.793 89.7809Z" fill="#EAB883"/>
<path d="M96.5872 57.3517L32.6229 121.316C31.2519 122.687 28.9866 122.687 27.5559 121.316L1.02832 94.7287C-0.342772 93.3576 -0.342772 91.0924 1.02832 89.6617L64.9329 25.6974C66.304 24.3264 68.5693 24.3264 70 25.6974L96.5872 52.2846C97.9583 53.7153 97.9583 55.9806 96.5872 57.3517Z" fill="#FFFFF2"/>
<path d="M96.5872 52.2846L70 25.6974C68.6289 24.3264 66.3636 24.3264 64.9329 25.6974L58.4352 32.1952L78.5246 52.2846C79.8957 53.6557 79.8957 55.921 78.5246 57.3517L21.1177 114.818L27.6155 121.316C28.9866 122.687 31.2519 122.687 32.6826 121.316L96.5872 57.3517C97.9583 55.9806 97.9583 53.7153 96.5872 52.2846Z" fill="#E9E8EA"/>
<path d="M30.7749 96.994C33.8039 96.994 36.2593 94.5386 36.2593 91.5097C36.2593 88.4808 33.8039 86.0253 30.7749 86.0253C27.746 86.0253 25.2906 88.4808 25.2906 91.5097C25.2906 94.5386 27.746 96.994 30.7749 96.994Z" fill="#5A82FA"/>
<path d="M206.87 58.9612L196.14 69.6915C193.696 72.1356 190.298 73.4471 186.781 73.2086L131.282 69.5723C126.095 69.2146 121.267 72.0164 118.942 76.6662L113.458 87.7541C112.802 89.1252 111.908 90.4366 110.835 91.5693L94.5007 109.095C92.2355 111.539 93.0104 115.474 96.0507 116.845L102.966 120.004C110.06 122.329 117.869 120.839 123.651 116.13L136.945 105.161C138.376 103.969 140.343 103.492 142.131 103.909L181.475 113.03C194.829 116.13 208.718 111.063 217.004 100.213L232.921 79.3487L206.87 58.9612Z" fill="#B46E59"/>
<path d="M272.504 119.647L208.539 55.6826C207.168 54.3115 207.168 52.0462 208.539 50.6155L235.127 24.0283C236.498 22.6572 238.763 22.6572 240.194 24.0283L304.098 87.9925C305.469 89.3636 305.469 91.6289 304.098 93.0596L277.511 119.647C276.14 121.018 273.875 121.018 272.504 119.647Z" fill="#FFFFF2"/>
<path d="M297.72 81.614L277.571 101.763C276.2 103.134 273.934 103.134 272.504 101.763L214.978 44.2369L208.539 50.6751C207.168 52.0462 207.168 54.3115 208.539 55.7422L272.504 119.706C273.875 121.077 276.14 121.077 277.571 119.706L304.158 93.1192C305.529 91.7481 305.529 89.4828 304.158 88.0521L297.72 81.614Z" fill="#E9E8EA"/>
</svg>
